<svg width="20" height="20" viewBox="0 0 20 20" fill="none" xmlns="http://www.w3.org/2000/svg">
<path d="M17 16.8996V14.3996C17 13.6996 16.9 12.9996 16.5 12.2996C16.1 11.5996 15.6 10.9996 14.9 10.5996C14.2 10.0996 12.7 9.99961 12 9.99961L10.4 11.6996L11 12.9996V15.9996L10 17.0996L9 15.9996V12.9996L9.7 11.6996L8 9.99961C7.2 9.99961 5.7 10.0996 5 10.5996C4.3 10.9996 3.9 11.5996 3.5 12.2996C3.1 12.9996 3 13.5996 3 14.3996V16.8996C3 16.8996 5.6 17.9996 10 17.9996C14.4 17.9996 17 16.8996 17 16.8996ZM10 2.09961C8.1 2.09961 7 3.89961 7.3 5.89961C7.6 7.89961 8.6 9.29961 10 9.29961C11.4 9.29961 12.4 7.89961 12.7 5.89961C13 3.79961 11.9 2.09961 10 2.09961Z" fill="#344054"/>
</svg>
