<svg width="20" height="20" viewBox="0 0 20 20" fill="none" xmlns="http://www.w3.org/2000/svg">
<g clip-path="url(#clip0_37_3024)">
<path fill-rule="evenodd" clip-rule="evenodd" d="M2.32136 10.7137C2.32136 11.0094 2.56136 11.2494 2.85707 11.2494H17.1428C17.2849 11.2494 17.4211 11.193 17.5216 11.0925C17.6221 10.9921 17.6785 10.8558 17.6785 10.7137V2.85658C17.6785 2.7145 17.6221 2.57824 17.5216 2.47778C17.4211 2.37731 17.2849 2.32087 17.1428 2.32087H2.85707C2.71499 2.32087 2.57873 2.37731 2.47827 2.47778C2.3778 2.57824 2.32136 2.7145 2.32136 2.85658V10.7137ZM2.85707 13.0352C2.24139 13.0352 1.65093 12.7906 1.21558 12.3552C0.780223 11.9199 0.535645 11.3294 0.535645 10.7137V2.85658C0.535645 1.57516 1.57564 0.535156 2.85707 0.535156H17.1428C18.4256 0.535156 19.4642 1.57516 19.4642 2.85658V10.7137C19.4642 11.9952 18.4256 13.0352 17.1428 13.0352H2.85707ZM9.44993 3.46658C8.97217 3.46594 8.51105 3.64201 8.15529 3.9609C7.79953 4.27979 7.57427 4.71899 7.52285 5.19397C7.47144 5.66896 7.59749 6.14618 7.87677 6.53382C8.15605 6.92146 8.56881 7.19212 9.03564 7.29373L10.5071 7.61516C10.6088 7.63908 10.6983 7.69938 10.7588 7.7847C10.8192 7.87002 10.8463 7.97448 10.8351 8.07841C10.8238 8.18235 10.775 8.27859 10.6977 8.34903C10.6205 8.41947 10.5202 8.45924 10.4156 8.46087H9.58564C9.49698 8.46092 9.41048 8.43346 9.33807 8.38229C9.26567 8.33112 9.21091 8.25875 9.18136 8.17516C9.10861 7.9698 8.95727 7.80176 8.76063 7.70799C8.56398 7.61422 8.33814 7.60241 8.13279 7.67516C7.92743 7.7479 7.75939 7.89924 7.66562 8.09589C7.57185 8.29253 7.56004 8.51837 7.63279 8.72373C7.77573 9.12739 8.04026 9.47684 8.38998 9.72397C8.7397 9.9711 9.15742 10.1038 9.58564 10.1037H10.4171C10.9262 10.1014 11.4167 9.91164 11.7948 9.57066C12.173 9.22968 12.4123 8.76137 12.4671 8.25515C12.5218 7.74894 12.3882 7.24028 12.0918 6.82631C11.7953 6.41233 11.3568 6.12204 10.8599 6.01087L9.3885 5.68944C9.31675 5.67512 9.25296 5.63447 9.20968 5.57548C9.1664 5.51649 9.14677 5.44343 9.15466 5.37069C9.16254 5.29795 9.19736 5.2308 9.25227 5.18245C9.30719 5.1341 9.37821 5.10806 9.45136 5.10944H10.4171C10.5057 5.1094 10.5922 5.13685 10.6646 5.18802C10.737 5.23919 10.7918 5.31156 10.8214 5.39516C10.8941 5.60051 11.0454 5.76855 11.2421 5.86232C11.4387 5.95609 11.6646 5.9679 11.8699 5.89516C12.0753 5.82241 12.2433 5.67107 12.3371 5.47442C12.4309 5.27778 12.4427 5.05194 12.3699 4.84658C12.227 4.44292 11.9625 4.09347 11.6127 3.84634C11.263 3.59921 10.8453 3.46654 10.4171 3.46658H9.44993ZM5.89279 6.78516C5.89279 6.45364 5.76109 6.13569 5.52667 5.90127C5.29225 5.66685 4.97431 5.53516 4.64279 5.53516C4.31127 5.53516 3.99332 5.66685 3.7589 5.90127C3.52448 6.13569 3.39279 6.45364 3.39279 6.78516C3.39279 7.11668 3.52448 7.43462 3.7589 7.66904C3.99332 7.90346 4.31127 8.03516 4.64279 8.03516C4.97431 8.03516 5.29225 7.90346 5.52667 7.66904C5.76109 7.43462 5.89279 7.11668 5.89279 6.78516ZM15.3571 8.03516C15.0256 8.03516 14.7076 7.90346 14.4732 7.66904C14.2388 7.43462 14.1071 7.11668 14.1071 6.78516C14.1071 6.45364 14.2388 6.13569 14.4732 5.90127C14.7076 5.66685 15.0256 5.53516 15.3571 5.53516C15.6886 5.53516 16.0065 5.66685 16.241 5.90127C16.4754 6.13569 16.6071 6.45364 16.6071 6.78516C16.6071 7.11668 16.4754 7.43462 16.241 7.66904C16.0065 7.90346 15.6886 8.03516 15.3571 8.03516ZM9.99993 19.8209C10.4928 19.8209 10.8928 19.4209 10.8928 18.928V16.0709C10.8928 15.8341 10.7987 15.607 10.6313 15.4395C10.4638 15.2721 10.2367 15.178 9.99993 15.178C9.76313 15.178 9.53603 15.2721 9.36858 15.4395C9.20114 15.607 9.10707 15.8341 9.10707 16.0709V18.928C9.10707 19.4209 9.50707 19.8209 9.99993 19.8209ZM14.4642 17.678C14.4642 17.7953 14.4411 17.9114 14.3963 18.0197C14.3514 18.128 14.2856 18.2264 14.2027 18.3094C14.1198 18.3923 14.0214 18.458 13.913 18.5029C13.8047 18.5478 13.6886 18.5709 13.5714 18.5709C13.4541 18.5709 13.338 18.5478 13.2297 18.5029C13.1214 18.458 13.0229 18.3923 12.94 18.3094C12.8571 18.2264 12.7913 18.128 12.7465 18.0197C12.7016 17.9114 12.6785 17.7953 12.6785 17.678V14.8209C12.6785 14.7036 12.7016 14.5875 12.7465 14.4792C12.7913 14.3709 12.8571 14.2724 12.94 14.1895C13.0229 14.1066 13.1214 14.0408 13.2297 13.996C13.338 13.9511 13.4541 13.928 13.5714 13.928C13.6886 13.928 13.8047 13.9511 13.913 13.996C14.0214 14.0408 14.1198 14.1066 14.2027 14.1895C14.2856 14.2724 14.3514 14.3709 14.3963 14.4792C14.4411 14.5875 14.4642 14.7036 14.4642 14.8209V17.678ZM6.4285 18.5709C6.92136 18.5709 7.32136 18.1709 7.32136 17.678V14.8209C7.32136 14.5841 7.22729 14.357 7.05985 14.1895C6.8924 14.0221 6.6653 13.928 6.4285 13.928C6.1917 13.928 5.9646 14.0221 5.79716 14.1895C5.62971 14.357 5.53564 14.5841 5.53564 14.8209V17.678C5.53564 18.1709 5.93564 18.5709 6.4285 18.5709Z" fill="#344054"/>
</g>
<defs>
<clipPath id="clip0_37_3024">
<rect width="20" height="20" fill="white"/>
</clipPath>
</defs>
</svg>
