<svg width="24" height="24" viewBox="0 0 24 24" fill="none" xmlns="http://www.w3.org/2000/svg">
<path d="M5.20397 11.4115L3.39597 9.60354C3.23464 9.4422 3.1573 9.25387 3.16397 9.03854C3.16997 8.82254 3.25364 8.63387 3.41497 8.47254L5.20397 6.68354C5.3653 6.5222 5.55364 6.44154 5.76897 6.44154C5.9843 6.44154 6.17264 6.5222 6.33397 6.68354L8.12297 8.47254C8.28497 8.63387 8.36597 8.8222 8.36597 9.03754C8.36597 9.25287 8.28497 9.44154 8.12297 9.60354L6.33397 11.3915C6.17264 11.5535 5.9843 11.6375 5.76897 11.6435C5.55364 11.6495 5.3653 11.5722 5.20397 11.4115ZM10.616 20.9995C10.3866 20.9995 10.1946 20.9222 10.04 20.7675C9.8853 20.6122 9.80797 20.4202 9.80797 20.1915V16.4035C8.92597 16.3349 8.05264 16.2405 7.18797 16.1205C6.3233 16.0012 5.45864 15.8472 4.59397 15.6585C4.4393 15.6179 4.3093 15.5399 4.20397 15.4245C4.09864 15.3092 4.0693 15.1772 4.11597 15.0285C4.16064 14.8799 4.2513 14.7709 4.38797 14.7015C4.52397 14.6322 4.66964 14.6179 4.82497 14.6585C6.00297 14.9292 7.19164 15.1209 8.39097 15.2335C9.5903 15.3469 10.7933 15.4035 12 15.4035C13.2066 15.4035 14.41 15.3469 15.61 15.2335C16.8086 15.1209 17.997 14.9292 19.175 14.6585C19.3303 14.6179 19.4763 14.6315 19.613 14.6995C19.7503 14.7675 19.841 14.8742 19.885 15.0195C19.9296 15.1742 19.8996 15.3092 19.795 15.4245C19.6903 15.5399 19.5603 15.6179 19.405 15.6585C18.541 15.8472 17.6766 16.0012 16.812 16.1205C15.9473 16.2399 15.074 16.3342 14.192 16.4035V20.1915C14.192 20.4202 14.1146 20.6122 13.96 20.7675C13.8053 20.9229 13.6133 21.0002 13.384 20.9995H10.616ZM12 7.38454C11.3593 7.38454 10.8146 7.15987 10.366 6.71054C9.91664 6.26187 9.69197 5.7172 9.69197 5.07654C9.69197 4.43587 9.91664 3.89087 10.366 3.44154C10.8153 2.9922 11.36 2.7682 12 2.76954C12.64 2.77087 13.185 2.9952 13.635 3.44254C14.085 3.88987 14.3093 4.43487 14.308 5.07754C14.3066 5.7202 14.082 6.26487 13.634 6.71154C13.186 7.1582 12.6413 7.3822 12 7.38354M12 13.7885C11.5346 13.7885 11.1363 13.6225 10.805 13.2905C10.4736 12.9592 10.308 12.5609 10.308 12.0955C10.308 11.6302 10.4736 11.2319 10.805 10.9005C11.1363 10.5692 11.5346 10.4035 12 10.4035C12.4653 10.4035 12.8636 10.5692 13.195 10.9005C13.5263 11.2319 13.692 11.6302 13.692 12.0955C13.692 12.5609 13.5263 12.9592 13.195 13.2905C12.8636 13.6219 12.4653 13.7885 12 13.7885ZM16.756 11.4415L15.894 9.94154C15.8233 9.82154 15.788 9.6882 15.788 9.54154C15.788 9.39487 15.8233 9.25887 15.894 9.13354L16.756 7.63354C16.826 7.50554 16.9223 7.4062 17.045 7.33554C17.1676 7.26487 17.3033 7.22987 17.452 7.23054H19.106C19.2553 7.23054 19.391 7.26554 19.513 7.33554C19.635 7.40554 19.7313 7.50487 19.802 7.63354L20.664 9.13354C20.734 9.2542 20.769 9.38787 20.769 9.53454C20.769 9.6812 20.734 9.81687 20.664 9.94154L19.802 11.4415C19.7313 11.5695 19.635 11.6689 19.513 11.7395C19.391 11.8102 19.2553 11.8455 19.106 11.8455H17.452C17.3026 11.8455 17.167 11.8102 17.045 11.7395C16.9223 11.6689 16.8256 11.5695 16.755 11.4415" fill="#344054"/>
</svg>
