<svg width="24" height="24" viewBox="0 0 24 24" fill="none" xmlns="http://www.w3.org/2000/svg">
<path d="M14.926 2.91032L8.274 6.10432C7.77193 6.34902 7.2009 6.41329 6.657 6.28632C6.42752 6.22941 6.19562 6.1827 5.962 6.14632C4.137 5.93932 3 7.38332 3 9.04432V9.95632C3 11.6163 4.137 13.0613 5.962 12.8523C6.19587 12.8178 6.42783 12.7714 6.657 12.7133C7.20101 12.5867 7.77205 12.6513 8.274 12.8963L14.926 16.0893C16.453 16.8223 17.217 17.1893 18.068 16.9033C18.92 16.6173 19.212 16.0043 19.796 14.7783C20.5885 13.1317 21.0001 11.3277 21.0001 9.50032C21.0001 7.6729 20.5885 5.86894 19.796 4.22232C19.212 2.99632 18.92 2.38232 18.068 2.09732C17.217 1.81132 16.453 2.17632 14.926 2.91032Z" stroke="#344054" stroke-width="1.5" stroke-linecap="round" stroke-linejoin="round"/>
<path d="M7.49986 12.5V6.5M11.4579 20.77L9.96686 22C6.60486 19.334 7.01586 18.063 7.01586 13H8.14986C8.60986 15.86 9.69486 17.216 11.1929 18.197C12.1149 18.801 12.3049 20.072 11.4579 20.77Z" stroke="#344054" stroke-width="1.5" stroke-linecap="round" stroke-linejoin="round"/>
</svg>
