<svg width="24" height="24" viewBox="0 0 24 24" fill="none" xmlns="http://www.w3.org/2000/svg">
<path d="M11 19C9.33333 19 7.91667 18.4167 6.75 17.25C5.58333 16.0833 5 14.6667 5 13C5 12.8167 5.00833 12.6333 5.025 12.45C5.04167 12.2667 5.06667 12.0833 5.1 11.9C5.01667 11.9333 4.91667 11.9583 4.8 11.975C4.68333 11.9917 4.58333 12 4.5 12C3.8 12 3.20833 11.7583 2.725 11.275C2.24167 10.7917 2 10.2 2 9.5C2 8.8 2.22933 8.20833 2.688 7.725C3.14667 7.24167 3.72567 7 4.425 7C4.975 7 5.471 7.154 5.913 7.462C6.355 7.77 6.66733 8.166 6.85 8.65C7.4 8.15 8.02933 7.75 8.738 7.45C9.44667 7.15 10.2007 7 11 7H22V11H17V13C17 14.6667 16.4167 16.0833 15.25 17.25C14.0833 18.4167 12.6667 19 11 19ZM4.5 10.5C4.78333 10.5 5.021 10.404 5.213 10.212C5.405 10.02 5.50067 9.78267 5.5 9.5C5.49933 9.21733 5.40333 8.98 5.212 8.788C5.02067 8.596 4.78333 8.5 4.5 8.5C4.21667 8.5 3.97933 8.596 3.788 8.788C3.59667 8.98 3.50067 9.21733 3.5 9.5C3.49933 9.78267 3.59533 10.0203 3.788 10.213C3.98067 10.4057 4.218 10.5013 4.5 10.5ZM11 15C11.55 15 12.021 14.8043 12.413 14.413C12.805 14.0217 13.0007 13.5507 13 13C12.9993 12.4493 12.8037 11.9787 12.413 11.588C12.0223 11.1973 11.5513 11.0013 11 11C10.4487 10.9987 9.978 11.1947 9.588 11.588C9.198 11.9813 9.002 12.452 9 13C8.998 13.548 9.194 14.019 9.588 14.413C9.982 14.807 10.4527 15.0027 11 15Z" fill="#344054"/>
</svg>
