<svg width="24" height="24" viewBox="0 0 24 24" fill="none" xmlns="http://www.w3.org/2000/svg">
<path d="M12 5H21.4C21.4788 5 21.5568 5.01552 21.6296 5.04567C21.7024 5.07583 21.7685 5.12002 21.8243 5.17574C21.88 5.23145 21.9242 5.29759 21.9543 5.37039C21.9845 5.44319 22 5.52121 22 5.6V18.4C22 18.4788 21.9845 18.5568 21.9543 18.6296C21.9242 18.7024 21.88 18.7685 21.8243 18.8243C21.7685 18.88 21.7024 18.9242 21.6296 18.9543C21.5568 18.9845 21.4788 19 21.4 19H12M12 5H2.6C2.44087 5 2.28826 5.06321 2.17574 5.17574C2.06321 5.28826 2 5.44087 2 5.6V18.4C2 18.5591 2.06321 18.7117 2.17574 18.8243C2.28826 18.9368 2.44087 19 2.6 19H12M12 5V19" stroke="#344054" stroke-width="1.5"/>
<path d="M2 17C3.32608 17 4.59785 16.4732 5.53553 15.5355C6.47322 14.5979 7 13.3261 7 12C7 10.6739 6.47322 9.40215 5.53553 8.46447C4.59785 7.52678 3.32608 7 2 7M22 17C20.6739 17 19.4021 16.4732 18.4645 15.5355C17.5268 14.5979 17 13.3261 17 12C17 10.6739 17.5268 9.40215 18.4645 8.46447C19.4021 7.52678 20.6739 7 22 7M12 15C11.2044 15 10.4413 14.6839 9.87868 14.1213C9.31607 13.5587 9 12.7956 9 12C9 11.2044 9.31607 10.4413 9.87868 9.87868C10.4413 9.31607 11.2044 9 12 9C12.7956 9 13.5587 9.31607 14.1213 9.87868C14.6839 10.4413 15 11.2044 15 12C15 12.7956 14.6839 13.5587 14.1213 14.1213C13.5587 14.6839 12.7956 15 12 15Z" stroke="#344054" stroke-width="1.5" stroke-linecap="round" stroke-linejoin="round"/>
</svg>
